<mxfile host="app.diagrams.net" modified="2023-04-17T16:33:40.523Z" agent="Mozilla/5.0 (X11; Ubuntu; Linux x86_64; rv:109.0) Gecko/20100101 Firefox/112.0" version="21.1.5" etag="1b4qJR2M8QhihSZU82zj" type="github">
  <diagram name="Page-1" id="gkEDrQpfw-2_Pg_R4Hp-">
    <mxGraphModel>
      <root>
        <mxCell id="0" />
        <mxCell id="1" parent="0" />
      </root>
    </mxGraphModel>
  </diagram>
</mxfile>
